<svg xmlns="http://www.w3.org/2000/svg" viewBox="0 0 414.6 414.6"><path d="M250.7 289h74.8s0-74.8-52.8-96c0 0-5.6 74.4-22 96zm-87.2 0H88.7s0-74.8 52.8-96c0 0 .8 53.6 22 96z" fill="#6598d1"/><path d="M272.7 193s-5.6 74.4-22 96h22c12-16 18.4-60.4 20.8-82.8-5.6-5.2-12.8-10-20.8-13.2zm-130.4 13.6c-.8-8.4-.8-13.6-.8-13.6-52.8 21.2-52.8 96-52.8 96h22.4s0-53.2 31.2-82.4z" fill="#7ea8ce"/><path d="M253.5 289s65.2-170.8-46.4-282.4c-111.6 111.6-46 282.4-46 282.4h92.4z" fill="#ee6e55"/><path d="M219.9 20.2c-4-4.8-8-9.2-12.8-14-111.6 112-46 282.8-46 282.8h25.2s-60-157.2 33.6-268.8z" fill="#ed8577"/><path d="M240.7 128.6c0 18.4-14.8 33.2-33.2 33.2-18.4 0-33.2-14.8-33.2-33.2s14.8-33.2 33.2-33.2 33.2 14.8 33.2 33.2z" fill="#a7d9e8"/><path d="M191.9 128.6c0-15.2 10.4-28 24.4-32-2.8-.8-6-1.2-9.2-1.2-18.4 0-33.2 14.8-33.2 33.2s14.8 33.2 33.2 33.2c3.2 0 6-.4 8.8-1.2-13.6-4-24-16.4-24-32z" fill="#c3dfe5"/><path d="M207.1 408.2c-42-42-33.6-92.8-33.6-92.8h67.2c.4 0 8.8 50.8-33.6 92.8z" fill="#ffce57"/><path d="M195.1 315.4h-21.2s-8.4 50.8 33.6 93.2c4-4 7.6-8 10.8-12.4-30.4-39.6-23.2-80.8-23.2-80.8z" fill="#ffd985"/><g fill="#424953"><path d="M278.3 188.6c2-58-10-130-66.8-186.8-2.4-2.4-6.4-2.4-8.8 0-56.4 56.8-68.8 128.8-66.4 186.8-53.2 24-53.6 97.2-53.6 100.4 0 3.6 2.8 6.4 6.4 6.4h236.4c3.6 0 6.4-2.8 6.4-6.4 0-3.2-.8-76.4-53.6-100.4zM207.1 15.4c92.4 98 50.4 241.2 42 267.2h-84c-8.4-26-50-169.2 42-267.2zm-70 186.8c2.8 36.8 10.8 66.4 15.2 80.4H95.5c1.2-16.8 8-62 41.6-80.4zm125.2 80.4c4.4-14 12.4-43.6 15.2-80.4 33.2 18.8 39.6 63.6 41.2 80.4h-56.4z"/><path d="M207.1 168.6c22 0 40-18 40-40s-18-40-40-40-40 18-40 40 18 40 40 40zm0-67.2c15.2 0 27.6 12.4 27.6 27.6 0 15.2-12.4 27.6-27.6 27.6-15.2 0-27.6-12.4-27.6-27.6.4-15.6 12.8-27.6 27.6-27.6zm34 207.6h-67.6c-3.2 0-5.6 2.4-6.4 5.2-.4 2-8.8 54.4 35.6 98.4 1.2 1.2 2.8 2 4.4 2 1.6 0 3.2-.8 4.4-2 44-44 36-96.4 35.6-98.4-.4-2.8-2.8-5.2-6-5.2zm-34 90c-27.2-30.4-28.8-64.8-28-77.6h56c.8 13.2-.4 47.2-28 77.6z"/></g></svg>